<mxfile>
  <diagram name="Page-1" id="YRN0WnMYgHOlV0YsdTX_">
    <mxGraphModel dx="3495" dy="1430" grid="1" gridSize="10" guides="1" tooltips="1" connect="1" arrows="1" fold="1" page="1" pageScale="1" pageWidth="850" pageHeight="1100" math="0" shadow="0">
      <root>
        <mxCell id="0" />
        <mxCell id="1" parent="0" />
        <mxCell id="rOt4-90A1MVEIv9z5QQF-1" value="Roadmap" style="shape=table;childLayout=tableLayout;startSize=20;collapsible=0;recursiveResize=0;expand=0;fontSize=16;fillColor=#dae8fc;strokeColor=#6c8ebf;strokeWidth=2;" parent="1" vertex="1">
          <mxGeometry x="-240" y="60" width="1253" height="1240" as="geometry" />
        </mxCell>
        <mxCell id="rOt4-90A1MVEIv9z5QQF-2" value="Дата-инжинеры" style="shape=tableRow;horizontal=0;swimlaneHead=0;swimlaneBody=0;top=0;left=0;strokeColor=#b85450;bottom=0;right=0;dropTarget=0;fontStyle=0;fillColor=#f8cecc;points=[[0,0.5],[1,0.5]];portConstraint=eastwest;startSize=40;collapsible=0;recursiveResize=0;expand=0;fontSize=16;strokeWidth=2;" parent="rOt4-90A1MVEIv9z5QQF-1" vertex="1">
          <mxGeometry y="20" width="1253" height="240" as="geometry" />
        </mxCell>
        <mxCell id="rOt4-90A1MVEIv9z5QQF-3" value="Q1" style="swimlane;swimlaneHead=0;swimlaneBody=0;fontStyle=0;strokeColor=#b85450;connectable=0;fillColor=#f8cecc;startSize=40;collapsible=0;recursiveResize=0;expand=0;fontSize=16;strokeWidth=2;" parent="rOt4-90A1MVEIv9z5QQF-2" vertex="1">
          <mxGeometry x="40" width="303" height="240" as="geometry">
            <mxRectangle width="303" height="240" as="alternateBounds" />
          </mxGeometry>
        </mxCell>
        <mxCell id="rOt4-90A1MVEIv9z5QQF-4" value="Разделение DWH на домены по DDD" style="rounded=1;whiteSpace=wrap;html=1;fillColor=#dae8fc;strokeColor=#6c8ebf;strokeWidth=2;" parent="rOt4-90A1MVEIv9z5QQF-3" vertex="1">
          <mxGeometry x="4.5" y="40" width="298.5" height="60" as="geometry" />
        </mxCell>
        <mxCell id="20" value="Настройка коннектеров, CDC" style="rounded=1;whiteSpace=wrap;html=1;fillColor=#dae8fc;strokeColor=#6c8ebf;strokeWidth=2;" parent="rOt4-90A1MVEIv9z5QQF-3" vertex="1">
          <mxGeometry x="140" y="100" width="160" height="60" as="geometry" />
        </mxCell>
        <mxCell id="32" value="Тестирование CDC: БД -&amp;gt; Kafka -&amp;gt; Lake" style="rounded=1;whiteSpace=wrap;html=1;fillColor=#dae8fc;strokeColor=#6c8ebf;strokeWidth=2;" parent="rOt4-90A1MVEIv9z5QQF-3" vertex="1">
          <mxGeometry x="140" y="160" width="160" height="60" as="geometry" />
        </mxCell>
        <mxCell id="rOt4-90A1MVEIv9z5QQF-5" value="Q2" style="swimlane;swimlaneHead=0;swimlaneBody=0;fontStyle=0;strokeColor=#b85450;connectable=0;fillColor=#f8cecc;startSize=40;collapsible=0;recursiveResize=0;expand=0;fontSize=16;strokeWidth=2;" parent="rOt4-90A1MVEIv9z5QQF-2" vertex="1">
          <mxGeometry x="343" width="304" height="240" as="geometry">
            <mxRectangle width="304" height="240" as="alternateBounds" />
          </mxGeometry>
        </mxCell>
        <mxCell id="rOt4-90A1MVEIv9z5QQF-28" value="Переход на Airflow" style="rounded=1;whiteSpace=wrap;html=1;fillColor=#dae8fc;strokeColor=#6c8ebf;strokeWidth=2;" parent="rOt4-90A1MVEIv9z5QQF-5" vertex="1">
          <mxGeometry y="40" width="300" height="60" as="geometry" />
        </mxCell>
        <mxCell id="40" value="Запуск пилотной витрины" style="rounded=1;whiteSpace=wrap;html=1;fillColor=#dae8fc;strokeColor=#6c8ebf;strokeWidth=2;" parent="rOt4-90A1MVEIv9z5QQF-5" vertex="1">
          <mxGeometry x="147" y="100" width="154" height="60" as="geometry" />
        </mxCell>
        <mxCell id="rOt4-90A1MVEIv9z5QQF-7" value="Q3" style="swimlane;swimlaneHead=0;swimlaneBody=0;fontStyle=0;strokeColor=#b85450;connectable=0;fillColor=#f8cecc;startSize=40;collapsible=0;recursiveResize=0;expand=0;fontSize=16;strokeWidth=2;" parent="rOt4-90A1MVEIv9z5QQF-2" vertex="1">
          <mxGeometry x="647" width="293" height="240" as="geometry">
            <mxRectangle width="293" height="240" as="alternateBounds" />
          </mxGeometry>
        </mxCell>
        <mxCell id="53" value="Стриминг ETL" style="rounded=1;whiteSpace=wrap;html=1;fillColor=#dae8fc;strokeColor=#6c8ebf;strokeWidth=2;" parent="rOt4-90A1MVEIv9z5QQF-7" vertex="1">
          <mxGeometry x="3" y="40" width="287" height="60" as="geometry" />
        </mxCell>
        <mxCell id="54" value="Data quality проверки" style="rounded=1;whiteSpace=wrap;html=1;fillColor=#dae8fc;strokeColor=#6c8ebf;strokeWidth=2;" parent="rOt4-90A1MVEIv9z5QQF-7" vertex="1">
          <mxGeometry x="150" y="100" width="140" height="60" as="geometry" />
        </mxCell>
        <mxCell id="rOt4-90A1MVEIv9z5QQF-10" value="Q4" style="swimlane;swimlaneHead=0;swimlaneBody=0;fontStyle=0;strokeColor=#b85450;connectable=0;fillColor=#f8cecc;startSize=40;collapsible=0;recursiveResize=0;expand=0;fontSize=16;strokeWidth=2;" parent="rOt4-90A1MVEIv9z5QQF-2" vertex="1">
          <mxGeometry x="940" width="313" height="240" as="geometry">
            <mxRectangle width="313" height="240" as="alternateBounds" />
          </mxGeometry>
        </mxCell>
        <mxCell id="63" value="Автоматизация&amp;nbsp; lineage в Data Catalog" style="rounded=1;whiteSpace=wrap;html=1;fillColor=#dae8fc;strokeColor=#6c8ebf;strokeWidth=2;" parent="rOt4-90A1MVEIv9z5QQF-10" vertex="1">
          <mxGeometry x="7" y="40" width="253" height="60" as="geometry" />
        </mxCell>
        <mxCell id="64" value="Запуск ML pipelines" style="rounded=1;whiteSpace=wrap;html=1;fillColor=#dae8fc;strokeColor=#6c8ebf;strokeWidth=2;" parent="rOt4-90A1MVEIv9z5QQF-10" vertex="1">
          <mxGeometry x="7" y="100" width="253" height="60" as="geometry" />
        </mxCell>
        <mxCell id="rOt4-90A1MVEIv9z5QQF-32" value="Миграция с SQL Server 2008, уход от легаси DWH" style="rounded=1;whiteSpace=wrap;html=1;fillColor=#dae8fc;strokeColor=#6c8ebf;strokeWidth=2;" parent="rOt4-90A1MVEIv9z5QQF-10" vertex="1">
          <mxGeometry x="-143" y="170" width="403" height="60" as="geometry" />
        </mxCell>
        <mxCell id="2" value="Архитектура и аналитика" style="shape=tableRow;horizontal=0;swimlaneHead=0;swimlaneBody=0;top=0;left=0;strokeColor=#b85450;bottom=0;right=0;dropTarget=0;fontStyle=0;fillColor=#f8cecc;points=[[0,0.5],[1,0.5]];portConstraint=eastwest;startSize=40;collapsible=0;recursiveResize=0;expand=0;fontSize=16;strokeWidth=2;" parent="rOt4-90A1MVEIv9z5QQF-1" vertex="1">
          <mxGeometry y="260" width="1253" height="191" as="geometry" />
        </mxCell>
        <mxCell id="3" style="swimlane;swimlaneHead=0;swimlaneBody=0;fontStyle=0;connectable=0;strokeColor=#6c8ebf;fillColor=#dae8fc;startSize=0;collapsible=0;recursiveResize=0;expand=0;fontSize=16;strokeWidth=2;" parent="2" vertex="1">
          <mxGeometry x="40" width="303" height="191" as="geometry">
            <mxRectangle width="303" height="191" as="alternateBounds" />
          </mxGeometry>
        </mxCell>
        <mxCell id="12" value="Разделение DWH на домены по DDD" style="rounded=1;whiteSpace=wrap;html=1;fillColor=#dae8fc;strokeColor=#6c8ebf;strokeWidth=2;" parent="3" vertex="1">
          <mxGeometry x="3" width="300" height="60" as="geometry" />
        </mxCell>
        <mxCell id="30" value="Согласование требований, SLA, определение списка витрин для платформы" style="rounded=1;whiteSpace=wrap;html=1;fillColor=#dae8fc;strokeColor=#6c8ebf;strokeWidth=2;" parent="3" vertex="1">
          <mxGeometry x="163" y="60" width="140" height="60" as="geometry" />
        </mxCell>
        <mxCell id="4" style="swimlane;swimlaneHead=0;swimlaneBody=0;fontStyle=0;connectable=0;strokeColor=#6c8ebf;fillColor=#dae8fc;startSize=0;collapsible=0;recursiveResize=0;expand=0;fontSize=16;strokeWidth=2;" parent="2" vertex="1">
          <mxGeometry x="343" width="304" height="191" as="geometry">
            <mxRectangle width="304" height="191" as="alternateBounds" />
          </mxGeometry>
        </mxCell>
        <mxCell id="33" value="Согласование требований по доступности, KPI" style="rounded=1;whiteSpace=wrap;html=1;fillColor=#dae8fc;strokeColor=#6c8ebf;strokeWidth=2;" parent="4" vertex="1">
          <mxGeometry x="4" y="5.5" width="300" height="60" as="geometry" />
        </mxCell>
        <mxCell id="34" value="Запуск пилотной витрины" style="rounded=1;whiteSpace=wrap;html=1;fillColor=#dae8fc;strokeColor=#6c8ebf;strokeWidth=2;" parent="4" vertex="1">
          <mxGeometry x="150" y="65.5" width="154" height="60" as="geometry" />
        </mxCell>
        <mxCell id="5" style="swimlane;swimlaneHead=0;swimlaneBody=0;fontStyle=0;connectable=0;strokeColor=#6c8ebf;fillColor=#dae8fc;startSize=0;collapsible=0;recursiveResize=0;expand=0;fontSize=16;strokeWidth=2;" parent="2" vertex="1">
          <mxGeometry x="647" width="293" height="191" as="geometry">
            <mxRectangle width="293" height="191" as="alternateBounds" />
          </mxGeometry>
        </mxCell>
        <mxCell id="6" style="swimlane;swimlaneHead=0;swimlaneBody=0;fontStyle=0;connectable=0;strokeColor=#6c8ebf;fillColor=#dae8fc;startSize=0;collapsible=0;recursiveResize=0;expand=0;fontSize=16;strokeWidth=2;" parent="2" vertex="1">
          <mxGeometry x="940" width="313" height="191" as="geometry">
            <mxRectangle width="313" height="191" as="alternateBounds" />
          </mxGeometry>
        </mxCell>
        <mxCell id="24" value="Проверка результатов, итоги" style="rounded=1;whiteSpace=wrap;html=1;fillColor=#dae8fc;strokeColor=#6c8ebf;strokeWidth=2;" parent="6" vertex="1">
          <mxGeometry x="250" y="68" width="63" height="60" as="geometry" />
        </mxCell>
        <mxCell id="23" value="Расширение витрины на несколько доменов" style="rounded=1;whiteSpace=wrap;html=1;fillColor=#dae8fc;strokeColor=#6c8ebf;strokeWidth=2;" parent="6" vertex="1">
          <mxGeometry x="-290" y="68" width="290" height="60" as="geometry" />
        </mxCell>
        <mxCell id="59" value="Запуск self-сервисов BI" style="rounded=1;whiteSpace=wrap;html=1;fillColor=#dae8fc;strokeColor=#6c8ebf;strokeWidth=2;" parent="6" vertex="1">
          <mxGeometry y="68" width="250" height="60" as="geometry" />
        </mxCell>
        <mxCell id="60" value="Запуск ML" style="rounded=1;whiteSpace=wrap;html=1;fillColor=#dae8fc;strokeColor=#6c8ebf;strokeWidth=2;" parent="6" vertex="1">
          <mxGeometry y="128" width="250" height="60" as="geometry" />
        </mxCell>
        <mxCell id="rOt4-90A1MVEIv9z5QQF-11" value="Инфраструктура" style="shape=tableRow;horizontal=0;swimlaneHead=0;swimlaneBody=0;top=0;left=0;strokeColor=#b85450;bottom=0;right=0;dropTarget=0;fontStyle=0;fillColor=#f8cecc;points=[[0,0.5],[1,0.5]];portConstraint=eastwest;startSize=40;collapsible=0;recursiveResize=0;expand=0;fontSize=16;strokeWidth=2;" parent="rOt4-90A1MVEIv9z5QQF-1" vertex="1">
          <mxGeometry y="451" width="1253" height="289" as="geometry" />
        </mxCell>
        <mxCell id="rOt4-90A1MVEIv9z5QQF-12" value="" style="swimlane;swimlaneHead=0;swimlaneBody=0;fontStyle=0;connectable=0;strokeColor=#6c8ebf;fillColor=#dae8fc;startSize=0;collapsible=0;recursiveResize=0;expand=0;fontSize=16;strokeWidth=2;" parent="rOt4-90A1MVEIv9z5QQF-11" vertex="1">
          <mxGeometry x="40" width="303" height="289" as="geometry">
            <mxRectangle width="303" height="289" as="alternateBounds" />
          </mxGeometry>
        </mxCell>
        <mxCell id="13" value="Подготовка базовой инфраструктуры для всего бизнеса, настройка Kafka кластера, Data Lake" style="rounded=1;whiteSpace=wrap;html=1;fillColor=#dae8fc;strokeColor=#6c8ebf;strokeWidth=2;" parent="rOt4-90A1MVEIv9z5QQF-12" vertex="1">
          <mxGeometry width="300" height="60" as="geometry" />
        </mxCell>
        <mxCell id="rOt4-90A1MVEIv9z5QQF-15" value="" style="swimlane;swimlaneHead=0;swimlaneBody=0;fontStyle=0;connectable=0;strokeColor=#6c8ebf;fillColor=#dae8fc;startSize=0;collapsible=0;recursiveResize=0;expand=0;fontSize=16;strokeWidth=2;" parent="rOt4-90A1MVEIv9z5QQF-11" vertex="1">
          <mxGeometry x="343" width="304" height="289" as="geometry">
            <mxRectangle width="304" height="289" as="alternateBounds" />
          </mxGeometry>
        </mxCell>
        <mxCell id="27" value="Data Catalog" style="rounded=1;whiteSpace=wrap;html=1;fillColor=#dae8fc;strokeColor=#6c8ebf;strokeWidth=2;" parent="rOt4-90A1MVEIv9z5QQF-15" vertex="1">
          <mxGeometry y="60" width="150" height="60" as="geometry" />
        </mxCell>
        <mxCell id="35" value="DWH + BI" style="rounded=1;whiteSpace=wrap;html=1;fillColor=#dae8fc;strokeColor=#6c8ebf;strokeWidth=2;" parent="rOt4-90A1MVEIv9z5QQF-15" vertex="1">
          <mxGeometry x="150" y="60" width="150" height="60" as="geometry" />
        </mxCell>
        <mxCell id="rOt4-90A1MVEIv9z5QQF-16" value="" style="swimlane;swimlaneHead=0;swimlaneBody=0;fontStyle=0;connectable=0;strokeColor=#6c8ebf;fillColor=#dae8fc;startSize=0;collapsible=0;recursiveResize=0;expand=0;fontSize=16;strokeWidth=2;" parent="rOt4-90A1MVEIv9z5QQF-11" vertex="1">
          <mxGeometry x="647" width="293" height="289" as="geometry">
            <mxRectangle width="293" height="289" as="alternateBounds" />
          </mxGeometry>
        </mxCell>
        <mxCell id="16" value="Подготовка и сопровождение инфраструктуры отдельных доменов" style="rounded=1;whiteSpace=wrap;html=1;fillColor=#dae8fc;strokeColor=#6c8ebf;strokeWidth=2;" parent="rOt4-90A1MVEIv9z5QQF-16" vertex="1">
          <mxGeometry x="-300" y="-3" width="600" height="60" as="geometry" />
        </mxCell>
        <mxCell id="49" value="Data governance, безопасность" style="rounded=1;whiteSpace=wrap;html=1;fillColor=#dae8fc;strokeColor=#6c8ebf;strokeWidth=2;" parent="rOt4-90A1MVEIv9z5QQF-16" vertex="1">
          <mxGeometry y="60" width="450" height="50" as="geometry" />
        </mxCell>
        <mxCell id="50" value="Расширение Data Lake" style="rounded=1;whiteSpace=wrap;html=1;fillColor=#dae8fc;strokeColor=#6c8ebf;strokeWidth=2;" parent="rOt4-90A1MVEIv9z5QQF-16" vertex="1">
          <mxGeometry y="110" width="290" height="50" as="geometry" />
        </mxCell>
        <mxCell id="52" value="Feauture Store (ML)" style="rounded=1;whiteSpace=wrap;html=1;fillColor=#dae8fc;strokeColor=#6c8ebf;strokeWidth=2;" parent="rOt4-90A1MVEIv9z5QQF-16" vertex="1">
          <mxGeometry x="1.5" y="160" width="148.5" height="60" as="geometry" />
        </mxCell>
        <mxCell id="62" value="Observability" style="rounded=1;whiteSpace=wrap;html=1;fillColor=#dae8fc;strokeColor=#6c8ebf;strokeWidth=2;" parent="rOt4-90A1MVEIv9z5QQF-16" vertex="1">
          <mxGeometry x="6" y="220" width="437" height="60" as="geometry" />
        </mxCell>
        <mxCell id="rOt4-90A1MVEIv9z5QQF-17" style="swimlane;swimlaneHead=0;swimlaneBody=0;fontStyle=0;connectable=0;strokeColor=#6c8ebf;fillColor=#dae8fc;startSize=0;collapsible=0;recursiveResize=0;expand=0;fontSize=16;strokeWidth=2;" parent="rOt4-90A1MVEIv9z5QQF-11" vertex="1">
          <mxGeometry x="940" width="313" height="289" as="geometry">
            <mxRectangle width="313" height="289" as="alternateBounds" />
          </mxGeometry>
        </mxCell>
        <mxCell id="29" value="Kubernetes , Kubeflow" style="rounded=1;whiteSpace=wrap;html=1;fillColor=#dae8fc;strokeColor=#6c8ebf;strokeWidth=2;" parent="rOt4-90A1MVEIv9z5QQF-17" vertex="1">
          <mxGeometry x="7" width="243" height="56.5" as="geometry" />
        </mxCell>
        <mxCell id="57" value="&lt;span style=&quot;color: rgb(0, 0, 0);&quot;&gt;Миграция с SQL Server 2008, уход от легаси DWH&lt;/span&gt;" style="rounded=1;whiteSpace=wrap;html=1;fillColor=#dae8fc;strokeColor=#6c8ebf;strokeWidth=2;" parent="rOt4-90A1MVEIv9z5QQF-17" vertex="1">
          <mxGeometry x="-143" y="158" width="403" height="60" as="geometry" />
        </mxCell>
        <mxCell id="rOt4-90A1MVEIv9z5QQF-19" value="Разработка" style="shape=tableRow;horizontal=0;swimlaneHead=0;swimlaneBody=0;top=0;left=0;strokeColor=#b85450;bottom=0;right=0;dropTarget=0;fontStyle=0;fillColor=#f8cecc;points=[[0,0.5],[1,0.5]];portConstraint=eastwest;startSize=40;collapsible=0;recursiveResize=0;expand=0;fontSize=16;rounded=0;strokeWidth=2;" parent="rOt4-90A1MVEIv9z5QQF-1" vertex="1">
          <mxGeometry y="740" width="1253" height="310" as="geometry" />
        </mxCell>
        <mxCell id="rOt4-90A1MVEIv9z5QQF-20" style="swimlane;swimlaneHead=0;swimlaneBody=0;fontStyle=0;connectable=0;strokeColor=#6c8ebf;fillColor=#dae8fc;startSize=0;collapsible=0;recursiveResize=0;expand=0;fontSize=16;strokeWidth=2;" parent="rOt4-90A1MVEIv9z5QQF-19" vertex="1">
          <mxGeometry x="40" width="303" height="310" as="geometry">
            <mxRectangle width="303" height="310" as="alternateBounds" />
          </mxGeometry>
        </mxCell>
        <mxCell id="rOt4-90A1MVEIv9z5QQF-24" value="Разделение DWH на домены" style="rounded=1;whiteSpace=wrap;html=1;fillColor=#dae8fc;strokeColor=#6c8ebf;strokeWidth=2;" parent="rOt4-90A1MVEIv9z5QQF-20" vertex="1">
          <mxGeometry x="3" width="300" height="60" as="geometry" />
        </mxCell>
        <mxCell id="25" value="Подготовка API gateway" style="rounded=1;whiteSpace=wrap;html=1;fillColor=#dae8fc;strokeColor=#6c8ebf;strokeWidth=2;" parent="rOt4-90A1MVEIv9z5QQF-20" vertex="1">
          <mxGeometry x="3" y="60" width="127" height="60" as="geometry" />
        </mxCell>
        <mxCell id="26" value="Event-продьюсеры" style="rounded=1;whiteSpace=wrap;html=1;fillColor=#dae8fc;strokeColor=#6c8ebf;strokeWidth=2;" parent="rOt4-90A1MVEIv9z5QQF-20" vertex="1">
          <mxGeometry x="130" y="60" width="170" height="60" as="geometry" />
        </mxCell>
        <mxCell id="31" value="Пробная интеграция с Kafka" style="rounded=1;whiteSpace=wrap;html=1;fillColor=#dae8fc;strokeColor=#6c8ebf;strokeWidth=2;" parent="rOt4-90A1MVEIv9z5QQF-20" vertex="1">
          <mxGeometry x="210" y="120" width="90" height="60" as="geometry" />
        </mxCell>
        <mxCell id="rOt4-90A1MVEIv9z5QQF-21" style="swimlane;swimlaneHead=0;swimlaneBody=0;fontStyle=0;connectable=0;strokeColor=#6c8ebf;fillColor=#dae8fc;startSize=0;collapsible=0;recursiveResize=0;expand=0;fontSize=16;strokeWidth=2;" parent="rOt4-90A1MVEIv9z5QQF-19" vertex="1">
          <mxGeometry x="343" width="304" height="310" as="geometry">
            <mxRectangle width="304" height="310" as="alternateBounds" />
          </mxGeometry>
        </mxCell>
        <mxCell id="15" value="Интеграция API доменов с платформой" style="rounded=1;whiteSpace=wrap;html=1;fillColor=#dae8fc;strokeColor=#6c8ebf;strokeWidth=2;" parent="rOt4-90A1MVEIv9z5QQF-21" vertex="1">
          <mxGeometry x="4" width="300" height="60" as="geometry" />
        </mxCell>
        <mxCell id="37" value="Экспериментальный ввод GraphQL для аналитики" style="rounded=1;whiteSpace=wrap;html=1;fillColor=#dae8fc;strokeColor=#6c8ebf;strokeWidth=2;" parent="rOt4-90A1MVEIv9z5QQF-21" vertex="1">
          <mxGeometry x="180" y="65" width="420" height="60" as="geometry" />
        </mxCell>
        <mxCell id="rOt4-90A1MVEIv9z5QQF-22" style="swimlane;swimlaneHead=0;swimlaneBody=0;fontStyle=0;connectable=0;strokeColor=#6c8ebf;fillColor=#dae8fc;startSize=0;collapsible=0;recursiveResize=0;expand=0;fontSize=16;strokeWidth=2;" parent="rOt4-90A1MVEIv9z5QQF-19" vertex="1">
          <mxGeometry x="647" width="293" height="310" as="geometry">
            <mxRectangle width="293" height="310" as="alternateBounds" />
          </mxGeometry>
        </mxCell>
        <mxCell id="47" value="Расширение API, продьюсеров" style="rounded=1;whiteSpace=wrap;html=1;fillColor=#dae8fc;strokeColor=#6c8ebf;strokeWidth=2;" parent="rOt4-90A1MVEIv9z5QQF-22" vertex="1">
          <mxGeometry width="290" height="60" as="geometry" />
        </mxCell>
        <mxCell id="48" value="Работа над fault tolerance" style="rounded=1;whiteSpace=wrap;html=1;fillColor=#dae8fc;strokeColor=#6c8ebf;strokeWidth=2;" parent="rOt4-90A1MVEIv9z5QQF-22" vertex="1">
          <mxGeometry x="3" y="130" width="437" height="60" as="geometry" />
        </mxCell>
        <mxCell id="58" value="&lt;span style=&quot;color: rgb(0, 0, 0);&quot;&gt;Миграция с SQL Server 2008, уход от легаси DWH&lt;/span&gt;" style="rounded=1;whiteSpace=wrap;html=1;fillColor=#dae8fc;strokeColor=#6c8ebf;strokeWidth=2;" parent="rOt4-90A1MVEIv9z5QQF-22" vertex="1">
          <mxGeometry x="147" y="190" width="403" height="60" as="geometry" />
        </mxCell>
        <mxCell id="36" value="Observability" style="rounded=1;whiteSpace=wrap;html=1;fillColor=#dae8fc;strokeColor=#6c8ebf;strokeWidth=2;" parent="rOt4-90A1MVEIv9z5QQF-22" vertex="1">
          <mxGeometry x="3" y="250" width="437" height="60" as="geometry" />
        </mxCell>
        <mxCell id="rOt4-90A1MVEIv9z5QQF-23" style="swimlane;swimlaneHead=0;swimlaneBody=0;fontStyle=0;connectable=0;strokeColor=#6c8ebf;fillColor=#dae8fc;startSize=0;collapsible=0;recursiveResize=0;expand=0;fontSize=16;strokeWidth=2;" parent="rOt4-90A1MVEIv9z5QQF-19" vertex="1">
          <mxGeometry x="940" width="313" height="310" as="geometry">
            <mxRectangle width="313" height="310" as="alternateBounds" />
          </mxGeometry>
        </mxCell>
        <mxCell id="41" value="Тестирование" style="shape=tableRow;horizontal=0;swimlaneHead=0;swimlaneBody=0;top=0;left=0;strokeColor=#b85450;bottom=0;right=0;dropTarget=0;fontStyle=0;fillColor=#f8cecc;points=[[0,0.5],[1,0.5]];portConstraint=eastwest;startSize=40;collapsible=0;recursiveResize=0;expand=0;fontSize=16;strokeWidth=2;" parent="rOt4-90A1MVEIv9z5QQF-1" vertex="1">
          <mxGeometry y="1050" width="1253" height="190" as="geometry" />
        </mxCell>
        <mxCell id="42" style="swimlane;swimlaneHead=0;swimlaneBody=0;fontStyle=0;connectable=0;strokeColor=#6c8ebf;fillColor=#dae8fc;startSize=0;collapsible=0;recursiveResize=0;expand=0;fontSize=16;strokeWidth=2;" parent="41" vertex="1">
          <mxGeometry x="40" width="303" height="190" as="geometry">
            <mxRectangle width="303" height="190" as="alternateBounds" />
          </mxGeometry>
        </mxCell>
        <mxCell id="43" style="swimlane;swimlaneHead=0;swimlaneBody=0;fontStyle=0;connectable=0;strokeColor=#6c8ebf;fillColor=#dae8fc;startSize=0;collapsible=0;recursiveResize=0;expand=0;fontSize=16;strokeWidth=2;" parent="41" vertex="1">
          <mxGeometry x="343" width="304" height="190" as="geometry">
            <mxRectangle width="304" height="190" as="alternateBounds" />
          </mxGeometry>
        </mxCell>
        <mxCell id="46" value="Тестирование функционала" style="rounded=1;whiteSpace=wrap;html=1;fillColor=#dae8fc;strokeColor=#6c8ebf;strokeWidth=2;" parent="43" vertex="1">
          <mxGeometry x="-100" y="50" width="950" height="60" as="geometry" />
        </mxCell>
        <mxCell id="44" style="swimlane;swimlaneHead=0;swimlaneBody=0;fontStyle=0;connectable=0;strokeColor=#6c8ebf;fillColor=#dae8fc;startSize=0;collapsible=0;recursiveResize=0;expand=0;fontSize=16;strokeWidth=2;" parent="41" vertex="1">
          <mxGeometry x="647" width="293" height="190" as="geometry">
            <mxRectangle width="293" height="190" as="alternateBounds" />
          </mxGeometry>
        </mxCell>
        <mxCell id="45" style="swimlane;swimlaneHead=0;swimlaneBody=0;fontStyle=0;connectable=0;strokeColor=#6c8ebf;fillColor=#dae8fc;startSize=0;collapsible=0;recursiveResize=0;expand=0;fontSize=16;strokeWidth=2;" parent="41" vertex="1">
          <mxGeometry x="940" width="313" height="190" as="geometry">
            <mxRectangle width="313" height="190" as="alternateBounds" />
          </mxGeometry>
        </mxCell>
      </root>
    </mxGraphModel>
  </diagram>
</mxfile>
